<svg version="1.2" xmlns="http://www.w3.org/2000/svg" viewBox="0 0 750 166" width="136" height="30"><defs><clipPath clipPathUnits="userSpaceOnUse" id="cp1"><path d="m0-297h750v750h-750z"/></clipPath></defs><style>.a{fill:#fff}.b{fill:#f65887}.c{fill:#040548}.d{fill:#3f4bf2}.e{fill:#f2ee11}</style><g clip-path="url(#cp1)"><path class="a" d="m0 467.9h750v-765h-750zm0-15h750v-750h-750zm0 0h750v-750h-750z"/><path  d="m259.6 69h-9.5v-39.3q0-2.9 1-5 0.9-2.2 2.5-3.4 1.6-1.1 3.4-1.6 1.8-0.5 3.9-0.5 17.6 0.5 21.9 1.1v7.9h-19.6q-1.3 0-2.1 0.3-0.7 0.2-1.1 0.9-0.2 0.7-0.3 1.2-0.1 0.5-0.1 1.4v7.8l20.1 0.6v7.9l-20.1 0.6zm38.1 0h-9.5v-49.7h21.7q3.1 0 5.5 0.8 2.4 0.7 4.2 2.5 1.9 1.7 2.9 4.8 1 3.1 1 7.4 0 3.5-0.6 6.2-0.6 2.6-1.3 4-0.8 1.4-2.1 2.5-1.3 1-1.9 1.3-0.7 0.2-2 0.7l9.4 19.5h-10.7l-8.2-18.8-8.4-0.9zm0.1-41.4v14.1h11.3q1.3 0 2.1-0.2 0.8-0.3 1.5-1 0.6-0.8 0.9-2.1 0.4-1.5 0.4-3.7 0-4-1.3-5.5-1.2-1.6-3.6-1.6zm32.1 31.6v-29.7q0-2.5 0.7-4.4 0.7-1.9 1.8-3 1.1-1.1 2.5-1.8 1.5-0.7 2.8-0.9 1.5-0.2 3-0.2 17.6 0.5 21.9 1.1v7.9h-19.6q-1.3 0-2.1 0.2-0.7 0.3-1.1 1-0.2 0.7-0.3 1.1-0.1 0.5-0.1 1.5v7.7l20.2 0.7v7.9l-20.2 0.6v7.7q0 1.3 0.4 2.2 0.3 0.7 1.1 1 0.7 0.3 1.2 0.4 0.5 0 1.6 0h18.9v7.8q-1.7 0.2-7 0.5-5.3 0.3-9.8 0.5l-4.4 0.2q-1.6 0-2.9-0.1-1.4-0.1-3-0.8-1.6-0.6-2.9-1.6-1.1-1-1.9-2.9-0.8-2-0.8-4.6zm38.6 0v-29.7q0-2.5 0.7-4.4 0.6-1.9 1.7-3 1.1-1.1 2.5-1.8 1.5-0.7 2.9-0.9 1.4-0.2 3-0.2 17.5 0.5 21.9 1.1v7.9h-19.7q-1.3 0-2 0.2-0.8 0.3-1.1 1-0.3 0.7-0.3 1.1-0.1 0.5-0.1 1.5v7.7l20.1 0.7v7.9l-20.1 0.6v7.7q0 1.3 0.3 2.2 0.4 0.7 1.1 1 0.8 0.3 1.2 0.4 0.6 0 1.6 0h19v7.8q-1.7 0.2-7 0.5-5.3 0.3-9.8 0.5l-4.4 0.2q-1.6 0-3-0.1-1.3-0.1-2.9-0.8-1.7-0.6-2.9-1.6-1.2-1-2-2.9-0.7-2-0.7-4.6zm111.6 9.8h-9.1v-49.8h9.1v20.8h4l12.6-20.8h11.1l-15.2 24.9 15.2 24.9h-11.1l-12.6-20.6h-4zm43.1 0h-9.5v-49.8h9.5zm18.5-41h-13.4v-8.7h36.8v8.7h-13.8v41h-9.6zm28.2 8v-4.3q0-2.8 0.7-5.1 0.7-2.2 1.8-3.7 1.2-1.4 2.9-2.3 1.7-0.9 3.6-1.3 2-0.4 4.5-0.4 5.1-0.2 10.6 0.4 5.5 0.6 8.6 1.5v7.5q-7.8-0.7-16.7-0.7-3.6 0-5.1 0.8-1.4 0.9-1.4 4.1v2.4q0 2.9 1.2 3.8 1.1 1 4.1 1h7.9q1.8 0 3.3 0.3 1.5 0.3 2.6 1 1.2 0.6 2.1 1.4 0.9 0.8 1.5 1.8 0.7 1 1.1 2.1 0.5 1.1 0.7 2.2 0.3 1.2 0.3 2.3 0.2 1 0.2 2.1v3.3q0 3.3-0.8 5.7-0.9 2.5-2.2 3.9-1.2 1.4-3.1 2.3-1.8 0.9-3.7 1.2-1.8 0.3-4 0.3-12.3 0-19.2-2.1v-7.4q7.5 0.7 17.3 0.7 1.3 0 2.2-0.1 1-0.2 1.9-0.6 1-0.4 1.5-1.3 0.5-0.9 0.5-2.3v-2.6q0-2.4-0.9-3.6-1-1.1-3.5-1.1h-7.7q-12.8-0.1-12.8-13.2z"/><path class="b" d="m415.6 69h-10.2l16.8-49.8h10.8l16.2 49.8h-10.1l-3.6-11h-16.3zm12.1-37.3l-6 17.8h11.6zm36.1 37.3h-9.5v-49.8h9.5z"/><path  d="m248.8 120.8v-13.7h2.9v13.3q0 3.5 1.3 5.1 1.3 1.5 4.1 1.5 2.9 0 4.2-1.5 1.2-1.6 1.2-5.1v-13.3h3v13.7q0 4.3-2.1 6.4-2.1 2.2-6.3 2.2-4.1 0-6.2-2.2-2.1-2.1-2.1-6.4zm32.6-7.7v2.5q-1.1-0.6-2.4-0.9-1.2-0.2-2.5-0.2-2 0-3 0.6-1 0.6-1 1.8 0 1 0.7 1.5 0.7 0.5 2.9 1l0.9 0.2q2.9 0.6 4.1 1.8 1.2 1.1 1.2 3.1 0 2.3-1.8 3.6-1.8 1.3-5 1.3-1.3 0-2.8-0.2-1.4-0.3-3-0.8v-2.8q1.5 0.8 3 1.2 1.4 0.4 2.9 0.4 1.9 0 2.9-0.7 1-0.6 1-1.8 0-1.1-0.7-1.7-0.8-0.6-3.3-1.1l-0.9-0.3q-2.5-0.5-3.6-1.6-1.1-1.1-1.1-3 0-2.3 1.6-3.5 1.6-1.3 4.7-1.3 1.5 0 2.8 0.2 1.3 0.2 2.4 0.7zm19.2 7v1.3h-12.4q0.2 2.8 1.7 4.3 1.5 1.4 4.2 1.4 1.5 0 3-0.3 1.4-0.4 2.9-1.2v2.6q-1.5 0.6-3 0.9-1.5 0.3-3.1 0.3-3.9 0-6.2-2.3-2.3-2.2-2.3-6.1 0-4.1 2.2-6.4 2.2-2.4 5.8-2.4 3.4 0 5.3 2.1 1.9 2.2 1.9 5.8zm-12.3-0.8h9.6q0-2.2-1.2-3.5-1.2-1.3-3.2-1.3-2.3 0-3.6 1.3-1.4 1.2-1.6 3.5zm28.9 7.2v8.7h-2.7v-22.6h2.7v2.5q0.8-1.5 2.1-2.2 1.3-0.7 3.1-0.7 3 0 4.9 2.4 1.8 2.3 1.8 6.2 0 3.9-1.8 6.3-1.9 2.3-4.9 2.3-1.8 0-3.1-0.7-1.3-0.7-2.1-2.2zm9.1-5.7q0-3-1.2-4.6-1.2-1.7-3.3-1.7-2.2 0-3.4 1.7-1.2 1.6-1.2 4.6 0 3 1.2 4.7 1.2 1.7 3.4 1.7 2.1 0 3.3-1.7 1.2-1.7 1.2-4.7zm16.8-8.5v2.8q-0.4-0.3-1-0.4-0.5-0.1-1.2-0.1-2.2 0-3.5 1.5-1.2 1.5-1.2 4.3v8.6h-2.7v-16.4h2.7v2.5q0.9-1.5 2.2-2.2 1.4-0.7 3.3-0.7 0.3 0 0.7 0 0.3 0.1 0.7 0.1zm8.5 2.2q-2.1 0-3.4 1.7-1.2 1.7-1.2 4.6 0 3 1.2 4.7 1.3 1.6 3.4 1.6 2.2 0 3.5-1.7 1.2-1.7 1.2-4.6 0-2.9-1.2-4.6-1.3-1.7-3.5-1.7zm0-2.3q3.6 0 5.6 2.3 2 2.3 2 6.3 0 4-2 6.3-2 2.3-5.6 2.3-3.5 0-5.5-2.3-2-2.3-2-6.3 0-4 2-6.3 2-2.3 5.5-2.3zm24.8 3.5q1-1.8 2.4-2.6 1.4-0.9 3.3-0.9 2.6 0 4 1.8 1.4 1.8 1.4 5.1v9.9h-2.7v-9.8q0-2.4-0.9-3.5-0.8-1.2-2.5-1.2-2.1 0-3.3 1.4-1.2 1.4-1.2 3.8v9.3h-2.7v-9.8q0-2.4-0.9-3.5-0.8-1.2-2.6-1.2-2 0-3.2 1.4-1.3 1.4-1.3 3.8v9.3h-2.7v-16.4h2.7v2.5q1-1.5 2.3-2.2 1.2-0.7 3-0.7 1.8 0 3.1 0.9 1.2 0.9 1.8 2.6zm19.1 10.8v8.7h-2.7v-22.6h2.7v2.5q0.8-1.5 2.1-2.2 1.3-0.7 3.1-0.7 3 0 4.9 2.4 1.8 2.3 1.8 6.2 0 3.9-1.8 6.3-1.9 2.3-4.9 2.3-1.8 0-3.1-0.7-1.3-0.7-2.1-2.2zm9.1-5.7q0-3-1.2-4.6-1.2-1.7-3.3-1.7-2.2 0-3.4 1.7-1.2 1.6-1.2 4.6 0 3 1.2 4.7 1.2 1.7 3.4 1.7 2.1 0 3.3-1.7 1.2-1.7 1.2-4.7zm7.3-12.9h2.7v4.7h5.5v2.1h-5.5v8.9q0 2 0.5 2.6 0.6 0.5 2.3 0.5h2.7v2.3h-2.7q-3.2 0-4.4-1.2-1.1-1.1-1.1-4.2v-8.9h-2v-2.1h2zm33.5 17.2l-7.7-7.9q-1.4 1.2-2 2.4-0.6 1.1-0.6 2.4 0 2.2 1.5 3.6 1.6 1.4 3.9 1.4 1.4 0 2.6-0.4 1.3-0.5 2.3-1.5zm-5.7-9.5l7.5 7.6q0.8-1.3 1.3-2.8 0.5-1.5 0.6-3.2h2.7q-0.2 2-0.9 3.8-0.8 1.9-2.1 3.8l4 4.2h-3.6l-2.1-2.2q-1.6 1.3-3.2 2-1.7 0.6-3.6 0.6-3.6 0-5.8-2-2.2-2-2.2-5.2 0-1.9 0.9-3.5 1-1.7 3-3.1-0.7-0.9-1.1-1.8-0.3-1-0.3-1.8 0-2.4 1.6-3.9 1.6-1.4 4.3-1.4 1.2 0 2.4 0.3 1.2 0.2 2.5 0.7v2.7q-1.3-0.7-2.5-1-1.1-0.4-2.1-0.4-1.5 0-2.5 0.8-1 0.8-1 2.1 0 0.8 0.5 1.5 0.4 0.8 1.7 2.2zm41.5 10.2v-5.8h-4.9v-2.5h7.8v9.4q-1.7 1.2-3.8 1.9-2.1 0.6-4.4 0.6-5.1 0-8-3-2.9-3-2.9-8.4 0-5.3 2.9-8.3 2.9-3 8-3 2.1 0 4.1 0.5 1.9 0.5 3.5 1.6v3.1q-1.6-1.4-3.5-2.1-1.8-0.7-3.8-0.7-4.1 0-6.1 2.3-2 2.2-2 6.6 0 4.5 2 6.7 2 2.3 6.1 2.3 1.5 0 2.8-0.3 1.2-0.3 2.2-0.9zm22.2-5.7v1.3h-12.4q0.2 2.8 1.7 4.2 1.5 1.5 4.2 1.5 1.5 0 3-0.4 1.4-0.4 2.9-1.1v2.5q-1.5 0.6-3 1-1.5 0.3-3.1 0.3-3.9 0-6.2-2.3-2.3-2.3-2.3-6.2 0-4 2.2-6.4 2.2-2.3 5.9-2.3 3.3 0 5.2 2.1 1.9 2.1 1.9 5.8zm-12.3-0.8h9.6q0-2.2-1.2-3.5-1.2-1.4-3.2-1.4-2.3 0-3.6 1.3-1.4 1.3-1.6 3.6zm16.7-11.4h2.7v4.7h5.6v2h-5.6v9q0 2 0.5 2.5 0.6 0.6 2.3 0.6h2.8v2.3h-2.8q-3.1 0-4.3-1.2-1.2-1.2-1.2-4.2v-9h-2v-2h2zm21.5 21v-21.9h3.9l9.7 18.3v-18.3h2.9v21.9h-4l-9.7-18.3v18.3zm36.4-8.9v1.4h-12.4q0.2 2.7 1.7 4.2 1.5 1.5 4.1 1.5 1.6 0 3.1-0.4 1.4-0.4 2.9-1.2v2.6q-1.5 0.6-3 0.9-1.5 0.3-3.1 0.3-3.9 0-6.2-2.2-2.3-2.3-2.3-6.2 0-4.1 2.1-6.4 2.2-2.4 5.9-2.4 3.3 0 5.2 2.2 2 2.1 2 5.7zm-12.3-0.7l9.6-0.1q0-2.2-1.3-3.5-1.2-1.3-3.2-1.3-2.2 0-3.6 1.3-1.3 1.2-1.5 3.6zm19.4 9.6l-4.3-16.4h2.7l3.4 12.8 3.4-12.8h3.1l3.4 12.8 3.4-12.8h2.7l-4.3 16.4h-3.2l-3.5-13.4-3.6 13.4zm31.5 0v-21.9h2.9v21.9zm19.6-13.9v-8.9h2.7v22.8h-2.7v-2.4q-0.9 1.4-2.2 2.1-1.3 0.7-3.1 0.7-3 0-4.8-2.3-1.9-2.4-1.9-6.3 0-3.8 1.9-6.2 1.8-2.4 4.8-2.4 1.8 0 3.1 0.7 1.3 0.7 2.2 2.2zm-9.2 5.7q0 3 1.2 4.7 1.2 1.7 3.4 1.7 2.1 0 3.3-1.7 1.3-1.7 1.3-4.7 0-2.9-1.3-4.6-1.2-1.7-3.3-1.7-2.2 0-3.4 1.7-1.2 1.7-1.2 4.6zm31.4-0.7v1.4h-12.4q0.2 2.7 1.7 4.2 1.5 1.5 4.2 1.5 1.6 0 3-0.4 1.5-0.4 2.9-1.2v2.6q-1.4 0.6-3 0.9-1.5 0.3-3.1 0.3-3.9 0-6.2-2.2-2.3-2.3-2.3-6.2 0-4.1 2.2-6.4 2.2-2.4 5.9-2.4 3.3 0 5.2 2.2 1.9 2.1 1.9 5.7zm-12.3-0.7l9.6-0.1q0-2.2-1.2-3.5-1.2-1.3-3.2-1.3-2.3 0-3.6 1.3-1.4 1.2-1.6 3.6zm26.9 1.4h-2.7q-3.2 0-4.5 0.7-1.3 0.8-1.3 2.6 0 1.4 1 2.3 0.9 0.8 2.5 0.8 2.3 0 3.6-1.6 1.4-1.6 1.4-4.2zm2.7-1.1v9.3h-2.7v-2.5q-0.9 1.5-2.3 2.2-1.4 0.7-3.4 0.7-2.5 0-4-1.4-1.5-1.4-1.5-3.8 0-2.7 1.9-4.1 1.8-1.4 5.5-1.4h3.8v-0.3q0-1.9-1.2-2.9-1.2-1-3.5-1-1.4 0-2.7 0.3-1.3 0.4-2.6 1v-2.4q1.5-0.6 2.9-0.9 1.4-0.3 2.7-0.3 3.6 0 5.3 1.9 1.8 1.8 1.8 5.6zm16-6.6v2.5q-1.1-0.5-2.4-0.8-1.2-0.3-2.5-0.3-2 0-3 0.6-1 0.6-1 1.8 0 1 0.7 1.5 0.7 0.5 2.9 1l0.9 0.2q2.9 0.6 4.1 1.8 1.2 1.1 1.2 3.1 0 2.3-1.8 3.6-1.8 1.3-5 1.3-1.3 0-2.8-0.2-1.4-0.3-3-0.8v-2.8q1.5 0.8 3 1.2 1.4 0.4 2.9 0.4 1.9 0 2.9-0.7 1-0.6 1-1.8 0-1.1-0.7-1.7-0.8-0.6-3.3-1.1l-0.9-0.2q-2.5-0.6-3.6-1.6-1.1-1.1-1.1-3.1 0-2.3 1.6-3.5 1.6-1.3 4.7-1.3 1.5 0 2.8 0.2 1.3 0.3 2.4 0.7z"/><path fill-rule="evenodd" class="c" d="m121.1 75q-0.1 0-0.1 0l-38.7-0.6c-4 0-7.3-3.3-7.2-7.3 0-4 3.3-7.2 7.3-7.2q0.1 0 0.1 0l38.7 0.6c4 0 7.3 3.3 7.2 7.3 0 4-3.3 7.2-7.3 7.2zm40.5 71.4c-2.6 0-5.1-1.4-6.4-3.8l-18.5-33.8c-1.9-3.5-0.6-7.9 3-9.8 3.6-1.9 8-0.6 9.9 2.9l18.5 33.7c1.9 3.5 0.6 8-3 9.9-1.1 0.6-2.3 0.9-3.5 0.9zm-1.9-83.3q0.2-0.2 0.3-0.4l19.8-31.3c2.2-3.4 6.7-4.4 10.2-2.3 3.4 2.2 4.4 6.7 2.3 10.1l-13.4 21-13.6 0.3c-2.3 0-4.3 1-5.6 2.6z"/><path fill-rule="evenodd" class="d" d="m165.4 75c-4 0-7.2-3.2-7.3-7.2-0.1-4 3.2-7.3 7.2-7.3l38.6-0.6c4.2 0 7.4 3.2 7.5 7.2 0 4-3.2 7.3-7.3 7.3l-38.6 0.6c0 0 0 0-0.1 0zm-71.2-35.8c-2.1-3.4-1.1-7.9 2.3-10 3.5-2.2 8-1.2 10.2 2.3l19.8 31.2c0.1 0.1 0.1 0.2 0.2 0.4-1.3-1.6-3.3-2.6-5.5-2.6l-13.6-0.3zm49 81.6l-11.9 21.8c-1.4 2.4-3.9 3.8-6.5 3.8-1.2 0-2.4-0.3-3.5-0.9-3.5-1.9-4.8-6.3-2.9-9.9l17.7-32.4c0-0.1 0.1-0.2 0.1-0.2-0.7 1.9-0.5 4 0.5 5.9z"/><path fill-rule="evenodd" class="e" d="m143.2 62.1c-1.2 0-2.4-0.3-3.5-0.8-3.5-1.9-4.8-6.4-2.9-9.9l18.4-33.7c1.9-3.5 6.4-4.8 10-2.9 3.5 1.9 4.8 6.3 2.9 9.8l-18.4 33.7c-1.4 2.5-3.9 3.8-6.5 3.8zm-35.7 37.9l-25 0.3q0 0-0.1 0c-4 0-7.2-3.2-7.3-7.2 0-4 3.2-7.3 7.2-7.3l37.2-0.6q0.1 0 0.1 0 0 0 0.1 0c-1.9 0.4-3.7 1.5-4.9 3.3zm103.9-6.8c-0.1 4-3.4 7.2-7.4 7.2q-0.1 0-0.1 0l-25-0.4-7.2-11.4c-1.2-1.8-3-3-4.9-3.3q0 0 0 0 0.1 0 0.1 0l37.2 0.5c4.1 0.1 7.4 3.4 7.3 7.4z"/><path fill-rule="evenodd" class="b" d="m100.4 132.2c-1.3 0-2.7-0.4-3.9-1.2-3.4-2.1-4.4-6.6-2.3-10l20.6-32.5c2.2-3.4 6.7-4.4 10.1-2.3 3.5 2.2 4.5 6.7 2.3 10.1l-20.6 32.4c-1.4 2.2-3.8 3.5-6.2 3.5zm85.7 0c-2.4 0-4.8-1.3-6.2-3.5l-20.6-32.4c-2.2-3.4-1.2-7.9 2.3-10.1 3.4-2.1 7.9-1.1 10.1 2.3l20.6 32.5c2.2 3.4 1.1 7.9-2.3 10-1.2 0.8-2.6 1.2-3.9 1.2zm-49.7-74.6c-0.1-0.2-0.2-0.3-0.3-0.5l-17.7-32.5c-1.9-3.5-0.6-7.9 2.9-9.8 3.6-1.9 8-0.6 10 2.9l12 21.9-6.5 11.8c-1.1 2-1.2 4.2-0.4 6.2z"/></g></svg>