<svg version="1.2" xmlns="http://www.w3.org/2000/svg" viewBox="0 0 181 161" width="34" height="30"><defs><clipPath clipPathUnits="userSpaceOnUse" id="cp1"><path d="m-250-277h750v750h-750z"/></clipPath></defs><style>.a{fill:#fff}.b{fill:#1f2937}.c{fill:#3f4bf2}</style><g clip-path="url(#cp1)"><path class="a" d="m-250 487.9h750v-765h-750zm0-15h750v-750h-750z"/><path class="b" d="m-250 472.9h750v-750h-750z"/><path fill-rule="evenodd" class="c" d="m64.5 76.1q-0.1 0-0.1 0l-38.7-0.5c-4-0.1-7.3-3.4-7.2-7.4 0.1-4 3.4-7.2 7.4-7.2q0 0 0 0l38.7 0.6c4.1 0 7.3 3.4 7.2 7.4 0 4-3.3 7.1-7.3 7.1zm40.6 71.4c-2.7 0-5.2-1.4-6.5-3.8l-18.5-33.7c-1.9-3.6-0.6-8 3-9.9 3.6-1.9 8-0.6 10 2.9l18.4 33.7c1.9 3.6 0.6 8-3 9.9-1 0.6-2.3 0.9-3.4 0.9zm-2-83.2q0.2-0.2 0.3-0.5l19.8-31.2c2.2-3.5 6.7-4.5 10.2-2.3 3.4 2.1 4.4 6.6 2.3 10l-13.4 21.1-13.6 0.2c-2.3 0-4.2 1.1-5.6 2.7z"/><path fill-rule="evenodd" class="c" d="m108.8 76.1c-4 0-7.2-3.1-7.3-7.1-0.1-4 3.2-7.4 7.2-7.4l38.6-0.6c4.2 0 7.4 3.2 7.5 7.2 0 4-3.2 7.3-7.3 7.4l-38.6 0.5c0 0 0 0-0.1 0zm-71.2-35.7c-2.1-3.4-1.1-7.9 2.4-10.1 3.4-2.2 7.9-1.1 10.1 2.3l19.8 31.2c0.1 0.2 0.1 0.3 0.2 0.4-1.3-1.6-3.3-2.6-5.5-2.6l-13.6-0.2zm49 81.5l-11.9 21.8c-1.4 2.4-3.9 3.8-6.5 3.8-1.2 0-2.4-0.3-3.5-0.8-3.5-1.9-4.8-6.4-2.9-9.9l17.7-32.5c0 0 0.1-0.1 0.1-0.2-0.6 1.9-0.5 4 0.5 5.9z"/><path fill-rule="evenodd" class="c" d="m86.6 63.3c-1.2 0-2.4-0.3-3.5-0.9-3.5-1.9-4.8-6.3-2.9-9.9l18.4-33.7c1.9-3.5 6.4-4.8 10-2.9 3.5 1.9 4.9 6.3 2.9 9.9l-18.4 33.7c-1.4 2.4-3.9 3.8-6.5 3.8zm-35.6 37.8l-25.1 0.3q0 0 0 0c-4 0-7.3-3.2-7.4-7.1 0-4 3.2-7.4 7.2-7.4l37.3-0.5q0 0 0 0 0.1 0 0.1 0c-1.9 0.3-3.7 1.4-4.9 3.3zm103.9-6.9c-0.1 4-3.4 7.2-7.4 7.2q-0.1 0-0.1 0l-25-0.3-7.2-11.5c-1.2-1.8-3-2.9-4.9-3.3q0.1 0 0 0 0.1 0 0.1 0l37.3 0.6c4 0 7.3 3.3 7.2 7.3z"/><path fill-rule="evenodd" class="c" d="m43.8 133.3c-1.3 0-2.7-0.4-3.9-1.1-3.4-2.2-4.4-6.7-2.3-10.1l20.6-32.4c2.2-3.5 6.7-4.4 10.2-2.3 3.4 2.1 4.4 6.6 2.3 10l-20.7 32.5c-1.4 2.2-3.7 3.4-6.2 3.4zm85.7 0c-2.4 0-4.8-1.2-6.2-3.4l-20.6-32.5c-2.2-3.4-1.2-7.9 2.3-10 3.4-2.2 7.9-1.2 10.1 2.3l20.6 32.4c2.2 3.4 1.2 7.9-2.3 10.1-1.2 0.7-2.6 1.1-3.9 1.1zm-49.7-74.6c-0.1-0.1-0.2-0.3-0.3-0.5l-17.7-32.4c-1.9-3.6-0.6-8 2.9-9.9 3.6-1.9 8-0.6 10 2.9l12 21.9-6.5 11.8c-1.1 2-1.1 4.3-0.4 6.2z"/></g></svg>